<svg xmlns="http://www.w3.org/2000/svg" xmlns:xlink="http://www.w3.org/1999/xlink" width="77px" height="22px" viewBox="0 0 77 22"><title>clutch-logo</title><g id="Page-1" stroke="none" stroke-width="1" fill="none" fill-rule="evenodd"><g id="IT-Services" transform="translate(-673.000000, -5597.000000)" fill-rule="nonzero"><g id="Testimonials" transform="translate(374.000000, 5125.000000)"><g id="Clutch" transform="translate(299.000000, 454.000000)"><g id="clutch-co-vector-logo" transform="translate(0.000000, 18.000000)"><polygon id="Path" fill="#17313B" points="20.02 0 23.562 0 23.562 21.868 20.02 21.868"></polygon><path d="M35.882,14.938 C35.882,18.326 33.11,18.634 32.186,18.634 C30.03,18.634 29.722,16.632 29.722,15.554 L29.722,7.084 L26.18,7.084 L26.18,15.4 C26.18,17.402 26.796,19.25 28.028,20.328 C29.106,21.406 30.492,21.868 32.186,21.868 C33.418,21.868 34.958,21.56 35.882,20.636 L35.882,21.868 L39.424,21.868 L39.424,7.084 L35.882,7.084 C35.882,7.084 35.882,14.938 35.882,14.938 Z" id="Path" fill="#17313B"></path><polygon id="Path" fill="#17313B" points="46.354 1.694 42.812 1.694 42.812 7.084 40.194 7.084 40.194 10.472 42.812 10.472 42.812 21.868 46.354 21.868 46.354 10.472 48.972 10.472 48.972 7.084 46.354 7.084"></polygon><path d="M60.06,17.402 C59.29,18.018 58.212,18.48 57.134,18.48 C54.67,18.48 52.976,16.632 52.976,14.168 C52.976,11.704 54.67,10.01 57.134,10.01 C58.212,10.01 59.29,10.318 60.06,11.088 L60.522,11.55 L62.986,9.24 L62.37,8.778 C60.984,7.546 59.136,6.776 57.134,6.776 C52.822,6.776 49.588,10.01 49.588,14.322 C49.588,18.634 52.822,21.868 57.134,21.868 C59.136,21.868 60.984,21.098 62.37,19.866 L62.986,19.404 L60.522,16.94 L60.06,17.402 Z" id="Path" fill="#17313B"></path><path d="M75.46,8.316 C74.382,7.238 73.304,6.776 71.61,6.776 C70.378,6.776 69.146,7.084 68.222,8.008 L68.222,0 L64.68,0 L64.68,21.868 L68.222,21.868 L68.222,13.706 C68.222,10.318 70.532,10.01 71.456,10.01 C73.612,10.01 73.458,12.012 73.458,13.09 L73.458,21.714 L77,21.714 L77,13.244 C77,11.242 76.538,9.394 75.46,8.316 Z" id="Path" fill="#17313B"></path><circle id="Oval" fill="#EF4335" cx="56.98" cy="14.322" r="2.464"></circle><path d="M15.092,16.478 C13.86,17.71 12.012,18.48 10.01,18.48 C6.16,18.48 3.388,15.4 3.388,11.242 C3.388,7.084 6.16,4.004 10.164,4.004 C12.012,4.004 13.86,4.774 15.246,6.16 L15.708,6.622 L18.018,4.312 L17.556,3.85 C15.554,1.848 12.936,0.77 10.164,0.77 C4.312,0.616 0,5.236 0,11.242 C0,17.248 4.312,21.868 10.01,21.868 C12.782,21.868 15.554,20.79 17.402,18.788 L17.864,18.326 L15.554,16.016 L15.092,16.478 Z" id="Path" fill="#17313B"></path></g></g></g></g></g></svg>